<svg width="55" height="62" viewBox="0 0 55 62" fill="none" xmlns="http://www.w3.org/2000/svg">
<mask id="mask0_46_65" style="mask-type:luminance" maskUnits="userSpaceOnUse" x="0" y="0" width="55" height="62">
<path d="M0 0H54.7105V61.93H0V0Z" fill="white"/>
</mask>
<g mask="url(#mask0_46_65)">
<path d="M54.5767 27.8914C54.5778 27.7807 54.5789 27.67 54.5789 27.5594C54.5789 12.3913 42.361 0.0942383 27.2894 0.0942383C12.2179 0.0942383 0 12.3913 0 27.5594C0 42.7275 12.2179 55.0234 27.2894 55.0234C31.9909 55.0234 36.4161 53.8266 40.2779 51.7194L52.1126 61.3906C53.1013 62.1979 54.5789 61.4904 54.5789 60.2079L54.5767 27.8914Z" fill="url(#paint0_linear_46_65)"/>
</g>
<path d="M28.5393 46.8996H26.0396C25.2387 46.8996 24.5879 46.2453 24.5879 45.438V44.0665C24.5879 43.2603 25.2387 42.606 26.0396 42.606H28.5393C29.3401 42.606 29.992 43.2603 29.992 44.0665V45.438C29.992 46.2453 29.3401 46.8996 28.5393 46.8996Z" fill="black"/>
<path d="M29.0487 50.1725H25.5301C25.0099 50.1725 24.5879 49.7482 24.5879 49.2252V49.2057C24.5879 48.6816 25.0099 48.2573 25.5301 48.2573H29.0487C29.5689 48.2573 29.992 48.6816 29.992 49.2057V49.2252C29.992 49.7482 29.5689 50.1725 29.0487 50.1725Z" fill="black"/>
<path d="M36.9635 30.9517V34.0018C36.9635 39.3132 32.684 43.6198 27.4051 43.6198H27.2119C21.9124 43.6198 17.6157 39.2958 17.6157 33.9617V30.9517C17.6157 30.4363 17.2012 30.0186 16.6896 30.0186H16.6702C16.1586 30.0186 15.7441 30.4363 15.7441 30.9517V34.0387C15.7441 40.3711 20.8439 45.5046 27.1363 45.5046H27.3673C33.7007 45.5046 38.8361 40.3364 38.8361 33.9617V30.9517C38.8361 30.4363 38.4216 30.0186 37.909 30.0186H37.8895C37.378 30.0186 36.9635 30.4363 36.9635 30.9517Z" fill="black"/>
<path d="M25.7285 44.1001V54.9789C26.2455 55.0082 26.7657 55.0234 27.2892 55.0234C27.8138 55.0234 28.3329 55.0082 28.8499 54.9789V44.1001H25.7285Z" fill="black"/>
<path d="M32.6787 14.6351V23.4176C32.6787 23.9743 32.2308 24.4246 31.6782 24.4246H31.6577C31.1061 24.4246 30.6582 23.9732 30.6582 23.4176V13.1215C30.6582 12.9283 30.5449 12.7547 30.369 12.6798C29.8919 12.4748 29.3889 12.3185 28.8687 12.2143C28.573 12.1557 28.2988 12.3825 28.2988 12.6842C28.2988 14.9682 28.2999 23.4176 28.2999 23.4176C28.2999 23.9743 27.852 24.4246 27.3005 24.4246H27.28C26.7273 24.4246 26.2794 23.9743 26.2794 23.4176C26.2794 23.4176 26.2805 14.9682 26.2805 12.6842C26.2805 12.3825 26.0064 12.1557 25.7106 12.2143C25.1893 12.3185 24.6885 12.4748 24.2115 12.6798C24.0355 12.7547 23.92 12.9283 23.92 13.1215V23.4176C23.92 23.9743 23.4732 24.4246 22.9217 24.4246H22.9012C22.3486 24.4246 21.9006 23.9732 21.9006 23.4176V14.6351C21.9006 14.4778 21.7107 14.4029 21.6049 14.5168C20.3248 15.897 19.5413 17.7493 19.5413 19.787V33.4621C19.5413 37.7264 22.9746 41.1823 27.212 41.1823H27.3674C31.6037 41.1823 35.0381 37.7264 35.0381 33.4621V19.787C35.0381 17.7493 34.2545 15.897 32.9744 14.5168C32.8687 14.4029 32.6787 14.4778 32.6787 14.6351Z" fill="black"/>
<defs>
<linearGradient id="paint0_linear_46_65" x1="27.2894" y1="0.0942382" x2="25.9299" y2="56.3711" gradientUnits="userSpaceOnUse">
<stop stop-color="#FCD683"/>
<stop offset="1" stop-color="#1192EE"/>
</linearGradient>
</defs>
</svg>
